HIERARCHY
ROOT Hips
{
	OFFSET 0.000000 0.000000 0.000000
	CHANNELS 6 Xposition Yposition Zposition Xrotation Yrotation Zrotation
	JOINT LeftUpLeg_virtual
	{
		OFFSET 0.000000 0.000000 0.000000
		CHANNELS 3 Xrotation Yrotation Zrotation
		JOINT LeftUpLeg
		{
			OFFSET 11.394100 -6.187798 -0.413800
			CHANNELS 3 Xrotation Yrotation Zrotation
			JOINT LeftLeg
			{
				OFFSET 0.430247 -32.302673 3.732800
				CHANNELS 3 Xrotation Yrotation Zrotation
				JOINT LeftFoot
				{
					OFFSET -0.430247 -48.264931 -6.423300
					CHANNELS 3 Xrotation Yrotation Zrotation
					JOINT LeftToeBase
					{
						OFFSET 4.230900 -16.068199 23.438400
						CHANNELS 3 Xrotation Yrotation Zrotation
						JOINT LeftToe_End
						{
							OFFSET 4.510700 0.695400 19.974600
							CHANNELS 3 Xrotation Yrotation Zrotation
							End Site
							{
								OFFSET 0 0 0
							}
						}
					}
				}
			}
		}
	}
	JOINT RightUpLeg_virtual
	{
		OFFSET 0.000000 0.000000 0.000000
		CHANNELS 3 Xrotation Yrotation Zrotation
		JOINT RightUpLeg
		{
			OFFSET -11.333700 -6.187798 -0.413800
			CHANNELS 3 Xrotation Yrotation Zrotation
			JOINT RightLeg
			{
				OFFSET -0.430392 -32.302628 3.733000
				CHANNELS 3 Xrotation Yrotation Zrotation
				JOINT RightFoot
				{
					OFFSET 0.430392 -48.264973 -6.423500
					CHANNELS 3 Xrotation Yrotation Zrotation
					JOINT RightToeBase
					{
						OFFSET -4.230900 -16.068199 23.438400
						CHANNELS 3 Xrotation Yrotation Zrotation
						JOINT RightToe_End
						{
							OFFSET -4.510700 0.695400 19.974600
							CHANNELS 3 Xrotation Yrotation Zrotation
							End Site
							{
								OFFSET 0 0 0
							}
						}
					}
				}
			}
		}
	}
	JOINT Spine_virtual
	{
		OFFSET 0.000000 0.000000 0.000000
		CHANNELS 3 Xrotation Yrotation Zrotation
		JOINT Spine
		{
			OFFSET -0.002400 12.777504 0.315300
			CHANNELS 3 Xrotation Yrotation Zrotation
			JOINT Spine1
			{
				OFFSET -0.002067 5.816869 0.032633
				CHANNELS 3 Xrotation Yrotation Zrotation
				JOINT Spine1_split
				{
					OFFSET -0.002067 5.816869 0.032633
					CHANNELS 3 Xrotation Yrotation Zrotation
					JOINT Spine2
					{
						OFFSET -0.002067 5.816869 0.032633
						CHANNELS 3 Xrotation Yrotation Zrotation
						JOINT Neck_virtual
						{
							OFFSET 0.000000 0.000000 0.000000
							CHANNELS 3 Xrotation Yrotation Zrotation
							JOINT Neck
							{
								OFFSET -0.003700 21.199493 -0.826900
								CHANNELS 3 Xrotation Yrotation Zrotation
								JOINT Head
								{
									OFFSET 0.000000 20.442200 4.834800
									CHANNELS 3 Xrotation Yrotation Zrotation
									JOINT HeadTop_End
									{
										OFFSET 0.000000 34.668396 4.968400
										CHANNELS 3 Xrotation Yrotation Zrotation
										End Site
										{
											OFFSET 0 0 0
										}
									}
								}
							}
						}
						JOINT LeftShoulder_virtual
						{
							OFFSET 0.000000 0.000000 0.000000
							CHANNELS 3 Xrotation Yrotation Zrotation
							JOINT LeftShoulder
							{
								OFFSET 3.288150 8.794197 -1.372250
								CHANNELS 3 Xrotation Yrotation Zrotation
								JOINT LeftShoulder_split
								{
									OFFSET 3.288150 8.794197 -1.372250
									CHANNELS 3 Xrotation Yrotation Zrotation
									JOINT LeftArm
									{
										OFFSET 11.953299 -2.279007 -0.146200
										CHANNELS 3 Xrotation Yrotation Zrotation
										JOINT LeftForeArm
										{
											OFFSET 18.448900 0.000000 0.000000
											CHANNELS 3 Xrotation Yrotation Zrotation
											JOINT LeftHand
											{
												OFFSET 29.527798 0.000000 0.000000
												CHANNELS 3 Xrotation Yrotation Zrotation
												End Site
												{
													OFFSET 0 0 0
												}
											}
										}
									}
								}
							}
						}
						JOINT RightShoulder_virtual
						{
							OFFSET 0.000000 0.000000 0.000000
							CHANNELS 3 Xrotation Yrotation Zrotation
							JOINT RightShoulder
							{
								OFFSET -3.249400 8.794197 -1.372250
								CHANNELS 3 Xrotation Yrotation Zrotation
								JOINT RightShoulder_split
								{
									OFFSET -3.249400 8.794197 -1.372250
									CHANNELS 3 Xrotation Yrotation Zrotation
									JOINT RightArm
									{
										OFFSET -11.953299 -2.279007 -0.146200
										CHANNELS 3 Xrotation Yrotation Zrotation
										JOINT RightForeArm
										{
											OFFSET -18.448900 0.000000 0.000000
											CHANNELS 3 Xrotation Yrotation Zrotation
											JOINT RightHand
											{
												OFFSET -29.527802 0.000000 0.000000
												CHANNELS 3 Xrotation Yrotation Zrotation
												End Site
												{
													OFFSET 0 0 0
												}
											}
										}
									}
								}
							}
						}
					}
				}
			}
		}
	}
}
MOTION
Frames: 6
Frame Time: 0.03333333
-0.301205 89.715714 0.171825 0.000000 0.000000 0.000000 3.020389 -58.275126 6.520085 -38.837125 8.057320 26.427590 42.580209 -7.215291 -9.677528 -5.193152 -2.782152 -10.042871 -0.327600 1.238384 0.837244 0.000000 0.000000 0.000000 3.020389 -58.275126 6.520085 -36.666665 -6.170712 -25.574644 47.502221 1.669009 -7.598027 -14.418900 3.655649 21.027803 -0.322787 -0.997384 -0.837162 0.000000 0.000000 0.000000 3.020389 -58.275126 6.520085 11.191478 0.139513 -2.738801 8.434584 0.027679 -5.592322 0.000000 0.000000 0.000000 0.000000 0.000000 0.000000 8.457038 0.027895 -5.591863 -21.556290 25.063285 12.062620 -0.293596 25.465684 -3.208706 0.000000 0.000000 0.000000 8.457038 0.027895 -5.591863 -6.221639 -11.503826 -4.023768 0.000000 0.000000 0.000000 -23.061621 9.569244 -36.639819 0.046359 -43.170952 -0.011007 0.000000 0.000000 0.000000 8.457038 0.027895 -5.591863 -5.488236 10.658251 2.466467 0.000000 0.000000 0.000000 -41.473882 -26.755574 30.079036 -155.044215 68.137100 156.691151 0.000000 0.000000 0.000000 
-1.367766 89.989326 0.401970 0.000000 0.000000 0.000000 6.522615 -60.103943 10.744822 -37.792427 8.803847 25.243018 41.555745 -5.151143 -9.132981 -6.002659 -2.154668 -11.303849 -0.366951 1.237911 0.841873 0.000000 0.000000 0.000000 6.522615 -60.103943 10.744822 -38.016789 -4.432634 -25.597606 47.458528 1.956051 -7.500254 -14.784312 3.984456 20.839382 -1.699996 -0.657363 -0.366451 0.000000 0.000000 0.000000 6.522615 -60.103943 10.744822 9.970851 0.068266 -3.324828 5.412859 1.778451 -6.941523 0.000000 0.000000 0.000000 0.000000 0.000000 0.000000 6.233833 0.975662 -6.719547 -17.015548 23.940361 3.257986 -3.784288 21.629761 8.240861 0.000000 0.000000 0.000000 6.233833 0.975662 -6.719547 -6.702464 -14.957879 -4.571849 0.000000 0.000000 0.000000 -18.021912 7.338806 -35.052558 -0.477857 -38.363311 -0.338788 0.000000 0.000000 0.000000 6.233833 0.975662 -6.719547 -5.596371 8.117643 2.079304 0.000000 0.000000 0.000000 -42.075342 -29.071143 25.529881 -158.484226 63.364314 160.638509 0.000000 0.000000 0.000000 
-3.834581 90.680099 0.820164 0.000000 0.000000 0.000000 7.744570 -60.933449 12.368250 -34.496714 9.888716 24.843860 38.344621 -3.865472 -7.863578 -6.218775 -1.967845 -13.762228 -0.327604 1.238489 0.837249 0.000000 0.000000 0.000000 7.744570 -60.933449 12.368250 -39.052115 -2.039147 -24.340976 50.706676 2.438053 -6.772023 -13.915783 4.609848 18.868772 -5.125255 -0.012071 -0.987544 0.000000 0.000000 0.000000 7.744570 -60.933449 12.368250 8.970286 -0.035048 -3.844087 0.891128 1.532510 -9.429973 0.000000 0.000000 0.000000 0.000000 0.000000 0.000000 1.674382 0.804740 -9.252081 -11.960172 23.337933 -5.988324 -2.747559 19.559527 10.071111 0.000000 0.000000 0.000000 1.674382 0.804740 -9.252081 -6.911199 -16.614288 -3.923259 0.000000 0.000000 0.000000 -17.257277 10.437852 -33.348443 0.390024 -39.556962 0.206016 0.000000 0.000000 0.000000 1.674382 0.804740 -9.252081 -5.775045 5.551407 1.625780 0.000000 0.000000 0.000000 -38.882481 -33.575714 26.148169 -161.829735 57.144716 164.636191 0.000000 0.000000 0.000000 
-7.695272 90.822273 0.904659 0.000000 0.000000 0.000000 7.441619 -58.325232 12.419621 -32.007240 10.960458 25.176711 34.923812 -4.819133 -6.811309 -6.320430 -3.491145 -16.008242 -0.327593 1.238542 0.837261 0.000000 0.000000 0.000000 7.441619 -58.325232 12.419621 -44.750583 3.375910 -23.330649 62.080641 4.711633 -6.216215 -7.227815 6.139424 17.262038 -19.908021 2.814357 -6.188898 0.000000 0.000000 0.000000 7.441619 -58.325232 12.419621 8.373274 -0.233806 -4.445771 -1.833101 1.182721 -11.772231 0.000000 0.000000 0.000000 0.000000 0.000000 0.000000 -1.526813 0.087516 -11.605883 -9.909276 22.692730 -8.192027 -1.800623 18.934471 8.662643 0.000000 0.000000 0.000000 -1.526813 0.087516 -11.605883 -6.653874 -14.959624 -0.689958 0.000000 0.000000 0.000000 -19.522827 9.032875 -32.675246 2.656746 -46.553026 1.886247 0.000000 0.000000 0.000000 -1.526813 0.087516 -11.605883 -6.030924 4.173768 0.513738 0.000000 0.000000 0.000000 -40.404872 -38.913896 24.896058 -163.945809 52.732213 167.151845 0.000000 0.000000 0.000000 
-12.556713 90.599091 0.885880 0.000000 0.000000 0.000000 6.252953 -53.405847 11.272379 -30.519747 11.795960 26.075021 32.699934 -8.588963 -6.654462 -7.513136 -5.296001 -16.839007 -0.393138 1.237564 0.835795 0.000000 0.000000 0.000000 6.252953 -53.405847 11.272379 -49.751310 9.177826 -22.644118 72.007624 9.773001 -6.724492 4.715803 7.701522 19.592375 -30.701724 4.537817 -2.944454 0.000000 0.000000 0.000000 6.252953 -53.405847 11.272379 7.986028 -0.504593 -4.792054 -2.751772 -0.097373 -13.141403 0.000000 0.000000 0.000000 0.000000 0.000000 0.000000 -2.781011 -1.300064 -12.982322 -8.353285 22.469712 -7.794732 0.497110 19.763916 5.968755 0.000000 0.000000 0.000000 -2.781011 -1.300064 -12.982322 -6.680640 -11.924403 2.218037 0.000000 0.000000 0.000000 -20.517159 8.633659 -31.762029 -1.226209 -58.081326 -1.084665 0.000000 0.000000 0.000000 -2.781011 -1.300064 -12.982322 -6.323341 3.423908 -0.902433 0.000000 0.000000 0.000000 -45.877998 -42.504551 20.709770 -165.508598 49.265355 168.972200 0.000000 0.000000 0.000000 
-17.967220 89.993515 0.925007 0.000000 0.000000 0.000000 7.524781 -51.006910 12.839708 -28.314430 12.624450 26.578928 30.073610 -10.731611 -5.945833 -9.254834 -5.211083 -19.241102 -0.408796 1.237267 0.838631 0.000000 0.000000 0.000000 7.524781 -51.006910 12.839708 -53.535644 14.324129 -23.546445 73.977164 12.606935 -7.029586 12.700402 8.629223 26.474718 -36.977435 2.410835 -5.757198 0.000000 0.000000 0.000000 7.524781 -51.006910 12.839708 8.054090 -0.649592 -4.482174 -2.628028 -1.143588 -13.585928 0.000000 0.000000 0.000000 0.000000 0.000000 0.000000 -2.658046 -2.261041 -13.417761 -8.304544 21.270580 -8.890613 -1.623350 18.228936 4.280483 0.000000 0.000000 0.000000 -2.658046 -2.261041 -13.417761 -7.010443 -7.758846 6.082061 0.000000 0.000000 0.000000 -22.464740 11.561103 -32.135658 0.090263 -67.442770 0.038937 0.000000 0.000000 0.000000 -2.658046 -2.261041 -13.417761 -6.606305 4.275087 -2.772683 0.000000 0.000000 0.000000 -55.680665 -40.663132 12.455858 -166.525763 47.451599 170.044663 0.000000 0.000000 0.000000 
